# xmcd CD database file
#
# Track frame offsets:
#	150
#	12075
#	24300
#	34650
#	43800
#	56175
#	69600
#	82575
#	97575
#	110925
#	122775
#	134850
#	144750
#	156825
#	166500
#	177975
#	190200
#	201975
#	224475
#	234750
#	247500
#	259350
#	271725
#
# Disc length: 3782 seconds
#
# Revision: 1
# Processed by: cddbd v1.5.1PL2 Copyright (c) Steve Scherf et al.
# Submitted via: freeDBTagger 0.8.2.1
#
DISCID=370ec417
DTITLE=Platters - A Collection [CD2]
DYEAR=2004
DGENRE=blues
TTITLE0=Under The Boardwalk
TTITLE1=On My Word Of Homor
TTITLE2=I Only Have Eyes For You
TTITLE3=Sweet Sweet Lovin'
TTITLE4=Who Put The Bop, Bop, Bop
TTITLE5=Septmber Song
TTITLE6=One In A Million
TTITLE7=The Wonder Of Your Love
TTITLE8=In The Still Of The Night
TTITLE9=My Dream
TTITLE10=With This Ring
TTITLE11=On Top Of My Mind
TTITLE12=My Old Flame
TTITLE13=Put Your Head On My Shoulder
TTITLE14=Sixteen Tons
TTITLE15=This Magic Moment
TTITLE16=Only You
TTITLE17=Unchained Melody
TTITLE18=Indeff'rent
TTITLE19=Only Because
TTITLE20=You'll Never Know
TTITLE21=You're Making A Mistake
TTITLE22=Save The Last Dance For Me
EXTD=
EXTT0=
EXTT1=
EXTT2=
EXTT3=
EXTT4=
EXTT5=
EXTT6=
EXTT7=
EXTT8=
EXTT9=
EXTT10=
EXTT11=
EXTT12=
EXTT13=
EXTT14=
EXTT15=
EXTT16=
EXTT17=
EXTT18=
EXTT19=
EXTT20=
EXTT21=
EXTT22=
PLAYORDER=
